# xmcd
#
# Track frame offsets:
#	150
#	66000
#	202425
#	210375
#
# Disc length: 3791 seconds
#
# Revision: 0
# Processed by: cddbd v1.5.2PL0 Copyright (c) Steve Scherf et al.
# Submitted via: EasyCDDAExtractor 16.0.6.1
#
DISCID=3b0ecd04
DTITLE=Χορός Αγιορειτών πατέρων - Άγιον Όρος 1000 χρόνια 06
DYEAR=2012
DGENRE=Βυζ. Εκκλησιαστική
TTITLE0=Αγρ. κ Παν. Τιμ. Ζ.-Δοξαστικό αποστοίχων [πλ. α']
TTITLE1=Αγρ. κ Παν. Τιμ. Ζ.-Απολυτίκιο[πλ. δ', τρίφ.]-Στ. οχτ. ''Θεοτόκε Παρθέ
TTITLE1=νε''[α', β' πλ.β', βαρύ, πλ.δ']
TTITLE2=Αγρ. κ Παν. Τιμ. Ζ.-Πλούσιοι επτώχευσαν [πλ. δ']
TTITLE3=Αγρ. κ Παν. Τιμ. Ζ.-Πολυέλεος ''Δούλοι Κύριον'' [πλ. α']
EXTD=
EXTT0=
EXTT1=
EXTT2=
EXTT3=
PLAYORDER=
